# xmcd
#
# Track frame offsets:
#	150
#	11594
#	29771
#	41467
#	63775
#	81929
#	98170
#	117302
#	132779
#	147750
#	159909
#	176648
#
# Disc length: 2569 seconds
#
# Revision: 1
# Processed by: cddbd v1.4b41PL2 Copyright (c) Steve Scherf et al.
# Submitted via: audiograbber 1.80
#
DISCID=960a070c
DTITLE=The Mud Boys - Dustkickers Palace
DYEAR=1900
DGENRE=
TTITLE0=Dustkickers Palace
TTITLE1=Girl Crazy
TTITLE2=Don't Slip That Disc
TTITLE3=Mr. Spaghetti
TTITLE4=Pullin' Chains
TTITLE5=Little Girl, Little Girl
TTITLE6=Plumber of the Blues
TTITLE7=Slippery Joe
TTITLE8=Paddy Lane
TTITLE9=My Baby Cooks
TTITLE10=Don't Look Down
TTITLE11=Trailer Park Jamboree
EXTD=
EXTT0=
EXTT1=
EXTT2=
EXTT3=
EXTT4=
EXTT5=
EXTT6=
EXTT7=
EXTT8=
EXTT9=
EXTT10=
EXTT11=
PLAYORDER=
